<svg xmlns="http://www.w3.org/2000/svg" width="256" height="256"><path fill-opacity=".016" d="M0 128.004v128.004l128.25-.254 128.25-.254.254-127.75L257.008 0H0v128.004m.485.496c0 70.4.119 99.053.265 63.672.146-35.38.146-92.98 0-128C.604 29.153.485 58.1.485 128.5" fill="#1976D2" fill-rule="evenodd"/><path fill-opacity=".167" d="M154 6.343c0 5.437-3.585 12.454-7.553 14.782-1.641.963-5.163 1.768-7.947 1.817-2.75.049-5.675.515-6.5 1.037-2.651 1.676 1.199 4.241 7.175 4.781 9.438.852 14.483 6.609 15.039 17.161.157 2.982.742 5.572 1.3 5.755 1.138.374 4.486-8.278 4.486-11.595C160 35.048 167.078 29 172.967 29 176.329 29 183 26.342 183 25.003c0-1.098-3.77-1.962-9-2.062-2.475-.048-5.826-.865-7.448-1.816-3.206-1.881-6.363-6.514-6.479-9.509-.175-4.515-2.42-9.616-4.231-9.616-1.507 0-1.842.791-1.842 4.343m70.615 23.122C223.727 30.82 223 32.344 223 32.85c0 1.386-4.648 4.15-6.978 4.15-1.127 0-2.932-.551-4.011-1.225-3.155-1.971-4.789.447-2.111 3.125 1.155 1.155 2.723 2.1 3.485 2.1 3.417 0 6.533 11.697 3.599 13.51-.559.346-.763 1.038-.454 1.539.716 1.158 4.47-1.12 4.47-2.713 0-.65 1.165-2.567 2.589-4.259 2.708-3.218 6.965-4.123 9.144-1.944 1.166 1.166 4.284.54 4.246-.852-.012-.429-1.843-2.07-4.068-3.645-4.712-3.334-6.274-6.552-4.914-10.127.962-2.53.427-5.509-.989-5.509-.428 0-1.505 1.109-2.393 2.465m-46.246 20.017c-.377.981-.164 2.617.473 3.637 1.733 2.774 1.422 4.421-1.325 7.026-1.365 1.295-2.49 2.918-2.5 3.605-.02 1.454 2.833 1.63 4.929.304 1.732-1.095 4.856.303 7.167 3.207.887 1.115 2.124 1.71 2.75 1.324 1.404-.868 1.495-4.246.137-5.085-1.861-1.15-1.014-4.112 2-7 3.654-3.501 3.765-4.5.5-4.5-1.375 0-2.5.45-2.5 1 0 2.329-5.413.898-8.134-2.151-2.479-2.775-2.895-2.938-3.497-1.367M237 66.947c0 2.031-4.01 9.206-6.585 11.781-.7.699-1.889 1.272-2.644 1.272-.754 0-1.872.501-2.484 1.113-1.064 1.064-4.609.869-11.947-.657-1.737-.361-3.953-.213-4.922.33-1.478.827-.705 1.497 4.783 4.144 3.6 1.736 7.728 4.483 9.172 6.105 2.423 2.719 2.627 3.646 2.627 11.956 0 7.423.27 9.009 1.531 9.009.843 0 1.791-.787 2.107-1.75 1.704-5.178 3.783-8.451 7.11-11.194 3.198-2.636 4.511-3.056 9.546-3.056 3.21 0 6.746.486 7.857 1.081 1.111.595 2.28.821 2.597.504.951-.951-1.598-5.585-3.073-5.585-2.256 0-7.117-2.777-9.726-5.557-2.23-2.375-2.449-3.426-2.449-11.76 0-7.921-.235-9.198-1.75-9.491-1.217-.236-1.75.299-1.75 1.755M120.796 69.75c-1.017 2.129-2.198 2.863-5.227 3.25-4.464.57-5.77 2.484-2.421 3.547 3.408 1.082 4.852 2.981 4.852 6.382 0 2.404.434 3.071 2 3.071 1.467 0 2-.667 2-2.5 0-2.333.333-2.5 5-2.5 2.75 0 5-.295 5-.655 0-.36-1.843-2.408-4.096-4.551-3.301-3.14-3.976-4.371-3.481-6.345.873-3.475-1.935-3.242-3.627.301M80.25 163.39C23.725 220.003 2 242.377 2 243.976c0 3.149 2.978 7.782 5.424 8.439 7.161 1.923 2.992 5.675 86.328-77.667C136.789 131.709 172 95.918 172 95.212c0-1.776-2.954-6.362-5.436-8.44-1.135-.95-3.414-1.733-5.064-1.74-2.648-.012-12.18 9.181-81.25 78.358m65.873-59.582l-13.851 13.807 2.316 2.693c1.274 1.48 2.906 2.692 3.628 2.692.721 0 7.268-5.969 14.548-13.263C163.002 99.477 166 95.88 166 93.853c0-2.397-1.894-3.779-5.263-3.839-.42-.008-6.996 6.199-14.614 13.794M173 112.312c0 .722.9 3.175 2 5.452 2.888 5.977 2.537 8.344-2 13.499-3.523 4.001-4.958 6.737-3.535 6.737.255 0 2.479-1.125 4.942-2.5 6.516-3.638 10.676-3.323 15.667 1.185 3.3 2.982 4.252 3.412 4.987 2.25 1.246-1.969 1.171-2.498-.561-3.935-.825-.685-1.5-2-1.5-2.922 0-.923-.528-2.206-1.173-2.851-1.455-1.455-.03-4.92 4.236-10.307 1.616-2.039 2.937-3.981 2.937-4.314 0-1.209-3.018-.562-6.5 1.394-5.473 3.074-9.543 2.632-13.797-1.5-3.77-3.662-5.703-4.403-5.703-2.188" fill="#1976D2" fill-rule="evenodd"/><path fill-opacity=".541" d="M154.55 7.499c-.416 3.299-1.398 7.239-2.182 8.755-2.056 3.977-8.523 7.746-13.289 7.746-6.067 0-5.766 1.688.648 3.639 10.576 3.217 13.715 6.763 14.898 16.831.738 6.274 1.426 6.175 3.289-.47 2.742-9.782 6.13-13.925 12.586-15.389 8.643-1.959 10.654-4.611 3.498-4.611-6.751 0-14.842-6.773-15.072-12.618-.041-1.035-.872-3.682-1.847-5.882l-1.772-4-.757 5.999M226 29.847c0 .465-1.597 2.49-3.548 4.5-2.733 2.813-4.342 3.653-7 3.653-1.899 0-3.452.45-3.452 1s.381 1 .847 1c2.428 0 5.04 3.907 5.336 7.982.174 2.399.88 4.548 1.567 4.774.688.226 1.25-.165 1.25-.868 0-2.698 5.285-6.888 8.687-6.888 3.662 0 4.445-1.506 1.302-2.503-3.539-1.124-6.547-9.416-3.989-10.997.55-.34 1-1.041 1-1.559s-.45-.941-1-.941-1 .381-1 .847m-47 20.465c0 .307.45 1.742 1 3.188 1.065 2.801.338 5.02-2.612 7.97-2.187 2.187-.957 3.172 1.991 1.595 2.018-1.08 2.808-.996 5.248.559 1.58 1.006 3.186 2.277 3.569 2.824.382.547 1.027.662 1.433.256.406-.405.205-1.27-.446-1.921-1.607-1.607-1.493-5.281.209-6.693.765-.636 1.615-2.011 1.889-3.056.432-1.651.176-1.778-1.957-.967-3.21 1.22-3.92 1.179-5.506-.317-2.449-2.309-4.818-4-4.818-3.438m57.283 20.452c-2.639 6.01-4.84 8.481-9.517 10.687-3.66 1.727-8.288 1.742-13.516.046-1.426-.463-2.25-.321-2.25.386 0 .615.675 1.117 1.5 1.117s1.5.378 1.5.839c0 .462 1.07 1.327 2.377 1.923 1.307.596 4.007 2.514 6 4.264L226 93.207v8.897c0 5.264.408 8.896 1 8.896.55 0 1-.684 1-1.52 0-2.174 4.789-9.587 7.877-12.194 2.169-1.831 3.878-2.22 9.873-2.25 3.988-.02 7.25-.399 7.25-.844 0-.444-1.708-1.561-3.796-2.482-2.088-.921-5.117-3.054-6.732-4.739-2.765-2.886-2.936-3.549-2.954-11.434-.01-4.603-.274-8.626-.587-8.939-.313-.313-1.505 1.562-2.648 4.166m-114.991-.014c-.882 2.39-2.298 3.217-5.542 3.235-1.513.008-2.75.465-2.75 1.015 0 .55.605 1 1.345 1 2.141 0 4.655 3.418 4.655 6.329 0 3.153 1.534 3.562 2.305.614.296-1.132 1.923-2.58 3.616-3.219 3.622-1.368 3.738-1.818 1.079-4.224-1.1-.995-2-2.865-2-4.155 0-2.742-1.773-3.131-2.708-.595m38.198 15.535c-1.105.668-36.655 36-79 78.515-50.038 50.239-77.095 78.101-77.291 79.589-.431 3.282 4.794 8.611 8.443 8.611 2.429 0 14.164-11.322 81.098-78.25 44.009-44.005 78.258-79.016 78.259-80 .001-1.713-7.268-9.785-8.749-9.715-.412.02-1.654.582-2.76 1.25m-13.923 17.03l-14.443 14.315 2.718 3.185c1.495 1.752 3.386 3.185 4.202 3.185C140.133 124 167 96.849 167 94.737c0-2.13-3.455-5.737-5.495-5.737-.822 0-7.994 6.442-15.938 14.315M174 112.426c0 .369.9 2.533 2 4.81 2.874 5.949 2.547 8.765-1.578 13.584-2.984 3.486-3.266 4.18-1.7 4.18 1.033 0 2.407-.529 3.054-1.176.648-.648 3.325-1.21 5.95-1.25 3.739-.058 5.552.521 8.362 2.671 1.974 1.51 3.839 2.495 4.145 2.188.307-.306-.554-2.544-1.912-4.974-2.725-4.876-2.57-6.34 1.272-12.001 1.378-2.031 2.275-3.924 1.992-4.206-.282-.283-2.06.22-3.95 1.117-1.891.897-4.507 1.631-5.814 1.631-2.031 0-6.148-2.075-7.821-3.942-1.304-1.455-4-3.229-4-2.632" fill="#1976D2" fill-rule="evenodd"/><path fill-opacity=".583" d="M155 11.026c0 3.435-.657 4.684-4.474 8.5-3.522 3.523-5.187 4.474-7.833 4.474-1.848 0-3.653.293-4.011.651-1.063 1.063 2.607 3.283 5.483 3.317 4.17.05 10.835 8.152 10.835 13.173 0 5.266 1.494 4.852 3.14-.871 1.544-5.372 7.687-12.27 10.926-12.27 1.136 0 2.997-.498 4.135-1.107 1.66-.889 1.795-1.282.684-1.985-.762-.483-2.623-.884-4.135-.893-3.932-.022-9.9-6.336-11.61-12.285-1.666-5.79-3.14-6.12-3.14-.704m67.703 24.577c-1.278 1.706-2.775 2.397-5.191 2.397-1.867 0-3.672.45-4.012 1-.34.55.014 1 .786 1 2.483 0 4.565 3.383 4.925 8.002.342 4.389.379 4.433 1.522 1.809 1.413-3.244 4.084-4.811 8.201-4.811 1.686 0 3.066-.45 3.066-1s-.623-1-1.385-1c-1.733 0-5.04-4.911-4.87-7.23.2-2.714-1.08-2.785-3.042-.167M181 55.941c0 1.618-.45 3.219-1 3.559-1.657 1.024-1.123 2.761.641 2.084.902-.346 2.702.066 4 .916 2.375 1.557 2.716 1.333 2.437-1.597-.083-.878.54-2.171 1.385-2.872 2.45-2.033 1.804-3.031-1.963-3.031-1.925 0-3.5-.45-3.5-1s-.45-1-1-1-1 1.323-1 2.941m57 13.626c0 1.382-3.713 7.078-6.5 9.971-2.485 2.579-8.15 4.319-12.267 3.766-4.953-.664-5.543.628-1.17 2.564 6.889 3.049 10.978 11.314 8.968 18.125-1.282 4.344-1.286 5.007-.031 5.007.55 0 1.015-.787 1.033-1.75.054-2.83 5.183-9.384 8.967-11.459 2.704-1.483 4.68-1.791 8.69-1.354 5.384.588 8.164-.755 3.821-1.845-3.774-.947-9.249-6.269-10.572-10.276-.706-2.142-.929-5.745-.552-8.95.347-2.951.402-5.366.122-5.366s-.509.705-.509 1.567M121.595 71.75c-.549 1.694-1.498 2.25-3.837 2.25h-3.107l2.175 2.314c1.196 1.273 2.174 3.298 2.174 4.5 0 1.203.45 2.186 1 2.186s1-.425 1-.943c0-.519 1.366-1.751 3.036-2.737 2.659-1.571 2.838-1.939 1.439-2.962-.878-.642-1.946-2.448-2.373-4.013-.751-2.751-.801-2.771-1.507-.595M160.5 87c.34.55 1.041 1 1.559 1s.941-.45.941-1-.702-1-1.559-1-1.281.45-.941 1m-16.357 14.628c-7.347 7.42-13.128 13.72-12.847 14.001.49.49 27.704-26.186 27.704-27.156 0-1.499-2.824 1.002-14.857 13.155M164 88.5c0 .275.938 1.438 2.083 2.583 2.613 2.613 3.888 1.647 1.423-1.077-1.694-1.872-3.506-2.65-3.506-1.506m-10.921 22.989c-8.165 8.271-14.792 14.216-15.442 13.852-2.476-1.39-5.892-4.951-6.664-6.949-.72-1.86-8.232 5.309-63.635 60.723-34.551 34.557-62.982 63.316-63.179 63.909-.774 2.32 2.231 7.13 5.236 8.381 2.547 1.06 3.45 1.057 5.024-.019 1.677-1.146 148.286-147.088 153.064-152.368 1.005-1.11 1.393-2.018.864-2.018-.53 0-7.401 6.52-15.268 14.489m22.921 4.32c0 .445.661 1.682 1.468 2.75 2.123 2.806 1.859 7.08-.647 10.469-2.733 3.697-1.891 4.652 2.27 2.577 3.079-1.537 3.406-1.498 7.714.91 4.413 2.466 6.717 2.607 4.378.268-2.134-2.134-1.4-8.81 1.368-12.439 1.403-1.839 2.104-3.344 1.559-3.344-.546 0-1.27.45-1.61 1-.34.55-2.997 1-5.904 1-4.016 0-5.721-.481-7.096-2-1.864-2.059-3.5-2.616-3.5-1.191" fill="#1976D2" fill-rule="evenodd"/></svg>